<svg id="Layer_1" enable-background="new 0 0 453.797 453.797" height="512" viewBox="0 0 453.797 453.797" width="512" xmlns="http://www.w3.org/2000/svg"><path fill="#595959" d="m290.511 403.931c-59.076 24.832-127.551 12.878-174.888-30.672 39.987-42.356 10.219-112.875-48.665-112.875-36.921 0-66.958 30.037-66.958 66.958 0 45.434 44.593 77.852 87.856 63.6 56.798 56.966 142.105 73.153 215.055 42.489 8.146-3.424 11.974-12.804 8.55-20.95-3.424-8.147-12.802-11.974-20.95-8.55zm-258.511-76.589c0-19.276 15.682-34.958 34.958-34.958 19.275 0 34.958 15.682 34.958 34.958 0 19.275-15.682 34.958-34.958 34.958-19.276-.001-34.958-15.683-34.958-34.958z"/><path fill="#595959" d="m51.943 205.794c8.336 3.032 17.496-1.294 20.506-9.566 15.935-43.806 50.476-79.194 93.528-96.446 10.564 23.117 33.889 39.228 60.921 39.228 36.92 0 66.958-30.037 66.958-66.958 0-36.92-30.037-66.958-66.958-66.958-35.484 0-64.594 27.75-66.807 62.685-54.785 19.866-97.941 63.152-117.715 117.509-3.02 8.305 1.263 17.485 9.567 20.506zm174.955-168.7c19.275 0 34.958 15.682 34.958 34.958s-15.682 34.958-34.958 34.958-34.958-15.682-34.958-34.958c.001-19.276 15.683-34.958 34.958-34.958z"/><path fill="#595959" d="m422.298 270.582c.564-3.173.898-13.387.898-18.185 0-55.47-23.636-108.607-64.847-145.787-6.561-5.918-16.678-5.399-22.598 1.162-5.919 6.561-5.399 16.678 1.162 22.598 36.091 32.561 56.509 80.138 54.076 130.155-38.895-2.394-71.109 28.635-71.109 66.817 0 36.92 30.037 66.958 66.958 66.958s66.958-30.037 66.958-66.958c.001-23.905-12.6-44.911-31.498-56.76zm-35.459 91.717c-19.275 0-34.958-15.682-34.958-34.958s15.682-34.958 34.958-34.958 34.958 15.682 34.958 34.958-15.682 34.958-34.958 34.958z"/></svg>